<svg width="217" height="48" viewBox="0 0 217 48" fill="none" xmlns="http://www.w3.org/2000/svg">
<path d="M43.5293 34.5059L46.0605 33.75V12.0234L43.582 11.4258L43.459 11.1973L43.7051 9.77344H52.5117L52.5996 9.93164L52.4238 11.2676L49.3828 12.0234V33.9434H58.2246L59.8418 29.4785C60.1816 29.4082 60.6328 29.4082 61.1953 29.4785L61.3535 36H43.459L43.3711 35.8418L43.5293 34.5059ZM64.5352 27.3867C64.5352 26.0625 64.7812 24.7969 65.2734 23.5898C65.7773 22.3828 66.457 21.334 67.3125 20.4434C69.1523 18.5332 71.3379 17.5781 73.8691 17.5781C76.4824 17.5781 78.5801 18.457 80.1621 20.2148C81.6855 21.9023 82.4473 24.082 82.4473 26.7539C82.4473 29.543 81.5332 31.8984 79.7051 33.8203C77.9121 35.6953 75.7266 36.6328 73.1484 36.6328C70.6055 36.6328 68.5195 35.7363 66.8906 33.9434C65.3203 32.209 64.5352 30.0234 64.5352 27.3867ZM69.1582 21.1992C68.6777 21.7617 68.3086 22.4766 68.0508 23.3438C67.793 24.1992 67.6641 25.2246 67.6641 26.4199C67.6641 27.6035 67.8516 28.6992 68.2266 29.707C68.6016 30.7148 69.0879 31.5879 69.6855 32.3262C70.9512 33.8848 72.3633 34.6641 73.9219 34.6641C76.5 34.6641 78.1641 33.4453 78.9141 31.0078C79.1836 30.1523 79.3184 29.1094 79.3184 27.8789C79.3184 26.6484 79.125 25.5176 78.7383 24.4863C78.3633 23.4551 77.877 22.5762 77.2793 21.8496C76.6934 21.1113 76.0371 20.543 75.3105 20.1445C74.5957 19.7344 73.8516 19.5293 73.0781 19.5293C72.3164 19.5293 71.5898 19.6699 70.8984 19.9512C70.2188 20.2207 69.6387 20.6367 69.1582 21.1992ZM92.8535 30.0762C91.7988 30.6738 91.2715 31.2539 91.2715 31.8164C91.2715 32.4492 91.418 32.8887 91.7109 33.1348C92.25 33.5918 93.2227 33.8965 94.6289 34.0488C96.0352 34.1895 97.2891 34.3594 98.3906 34.5586C99.4922 34.7461 100.4 35.0156 101.115 35.3672C102.521 36.0703 103.225 37.3301 103.225 39.1465C103.225 40.9863 102.41 42.4805 100.781 43.6289C99.1172 44.8242 96.9727 45.4219 94.3477 45.4219C91.7578 45.4219 89.6777 44.8125 88.1074 43.5938C86.7598 42.5508 86.0859 41.373 86.0859 40.0605C86.0859 39.1582 86.3906 38.4785 87 38.0215L88.0195 37.1074C88.4414 36.7441 88.957 36.334 89.5664 35.877C88.5469 35.3027 88.0371 34.3945 88.0371 33.1523C88.0371 32.4141 88.3359 31.8047 88.9336 31.3242C89.2148 31.0898 89.5664 30.8555 89.9883 30.6211L91.3945 29.7598C89.4023 29.0684 88.0957 27.9023 87.4746 26.2617C87.2637 25.7109 87.1582 24.9902 87.1582 24.0996C87.1582 23.209 87.3867 22.3301 87.8438 21.4629C88.3008 20.5957 88.8984 19.8633 89.6367 19.2656C91.1602 18.0469 92.9531 17.4375 95.0156 17.4375L99.7969 17.6309C101.426 17.6309 102.662 17.4609 103.506 17.1211C103.822 17.5547 103.98 17.9707 103.98 18.3691C103.98 18.9434 103.916 19.3945 103.787 19.7227C103.541 19.8867 103.23 19.9688 102.855 19.9688C102.492 19.9688 102.193 19.9336 101.959 19.8633C101.725 19.793 101.496 19.7109 101.273 19.6172C100.699 19.3477 100.248 19.1895 99.9199 19.1426L99.7969 19.4062C100.664 20.0742 101.227 21.0938 101.484 22.4648C101.566 22.8516 101.607 23.373 101.607 24.0293C101.607 24.6738 101.402 25.3945 100.992 26.1914C100.582 26.9883 100.031 27.6797 99.3398 28.2656C97.8633 29.5312 96.1289 30.1641 94.1367 30.1641C93.8086 30.1641 93.3809 30.1348 92.8535 30.0762ZM94.6289 28.2656C95.2148 28.2656 95.748 28.1836 96.2285 28.0195C96.709 27.8438 97.1309 27.5918 97.4941 27.2637C98.3027 26.5371 98.707 25.5762 98.707 24.3809C98.707 22.9043 98.2383 21.6855 97.3008 20.7246C96.4102 19.8223 95.3379 19.3711 94.084 19.3711C92.877 19.3711 91.8867 19.7695 91.1133 20.5664C90.3633 21.3398 89.9883 22.3184 89.9883 23.502C89.9883 24.9199 90.4453 26.0742 91.3594 26.9648C92.25 27.832 93.3398 28.2656 94.6289 28.2656ZM88.9688 39.5156C88.9688 39.9609 89.0859 40.4297 89.3203 40.9219C89.5664 41.4141 89.9297 41.8594 90.4102 42.2578C91.4531 43.1367 92.8887 43.5762 94.7168 43.5762C96.627 43.5762 98.0391 43.1484 98.9531 42.293C99.7148 41.5898 100.096 40.6289 100.096 39.4102C100.096 38.6484 99.6797 38.1094 98.8477 37.793C98.0859 37.4883 96.9316 37.2539 95.3848 37.0898C92.9238 36.8086 91.3535 36.5684 90.6738 36.3691C89.5371 37.1543 88.9688 38.2031 88.9688 39.5156ZM106.547 27.3867C106.547 26.0625 106.793 24.7969 107.285 23.5898C107.789 22.3828 108.469 21.334 109.324 20.4434C111.164 18.5332 113.35 17.5781 115.881 17.5781C118.494 17.5781 120.592 18.457 122.174 20.2148C123.697 21.9023 124.459 24.082 124.459 26.7539C124.459 29.543 123.545 31.8984 121.717 33.8203C119.924 35.6953 117.738 36.6328 115.16 36.6328C112.617 36.6328 110.531 35.7363 108.902 33.9434C107.332 32.209 106.547 30.0234 106.547 27.3867ZM111.17 21.1992C110.689 21.7617 110.32 22.4766 110.062 23.3438C109.805 24.1992 109.676 25.2246 109.676 26.4199C109.676 27.6035 109.863 28.6992 110.238 29.707C110.613 30.7148 111.1 31.5879 111.697 32.3262C112.963 33.8848 114.375 34.6641 115.934 34.6641C118.512 34.6641 120.176 33.4453 120.926 31.0078C121.195 30.1523 121.33 29.1094 121.33 27.8789C121.33 26.6484 121.137 25.5176 120.75 24.4863C120.375 23.4551 119.889 22.5762 119.291 21.8496C118.705 21.1113 118.049 20.543 117.322 20.1445C116.607 19.7344 115.863 19.5293 115.09 19.5293C114.328 19.5293 113.602 19.6699 112.91 19.9512C112.23 20.2207 111.65 20.6367 111.17 21.1992Z" fill="#A70909"/>
<path d="M43.5293 34.5059L42.957 32.5895L41.6977 32.9655L41.5432 34.2707L43.5293 34.5059ZM46.0605 33.75L46.6328 35.6664L48.0605 35.24V33.75H46.0605ZM46.0605 12.0234H48.0605V10.4484L46.5294 10.0792L46.0605 12.0234ZM43.582 11.4258L41.8211 12.374L42.2447 13.1606L43.1132 13.3701L43.582 11.4258ZM43.459 11.1973L41.4882 10.8566L41.3706 11.5373L41.698 12.1455L43.459 11.1973ZM43.7051 9.77344V7.77344H42.0211L41.7343 9.43281L43.7051 9.77344ZM52.5117 9.77344L54.26 8.80215L53.6885 7.77344H52.5117V9.77344ZM52.5996 9.93164L54.5825 10.1925L54.6687 9.53772L54.3479 8.96035L52.5996 9.93164ZM52.4238 11.2676L52.9063 13.2085L54.2289 12.8798L54.4067 11.5285L52.4238 11.2676ZM49.3828 12.0234L48.9004 10.0825L47.3828 10.4597V12.0234H49.3828ZM49.3828 33.9434H47.3828V35.9434H49.3828V33.9434ZM58.2246 33.9434V35.9434H59.6274L60.1051 34.6245L58.2246 33.9434ZM59.8418 29.4785L59.4366 27.52L58.342 27.7465L57.9613 28.7974L59.8418 29.4785ZM61.1953 29.4785L63.1947 29.43L63.1529 27.7077L61.4434 27.494L61.1953 29.4785ZM61.3535 36V38H63.4026L63.3529 35.9515L61.3535 36ZM43.459 36L41.7107 36.9713L42.2822 38H43.459V36ZM43.3711 35.8418L41.385 35.6066L41.309 36.2483L41.6228 36.8131L43.3711 35.8418ZM44.1016 36.4222L46.6328 35.6664L45.4883 31.8336L42.957 32.5895L44.1016 36.4222ZM48.0605 33.75V12.0234H44.0605V33.75H48.0605ZM46.5294 10.0792L44.0509 9.48151L43.1132 13.3701L45.5917 13.9677L46.5294 10.0792ZM45.343 10.4776L45.2199 10.2491L41.698 12.1455L41.8211 12.374L45.343 10.4776ZM45.4298 11.5379L45.6759 10.1141L41.7343 9.43281L41.4882 10.8566L45.4298 11.5379ZM43.7051 11.7734H52.5117V7.77344H43.7051V11.7734ZM50.7634 10.7447L50.8513 10.9029L54.3479 8.96035L54.26 8.80215L50.7634 10.7447ZM50.6167 9.67073L50.4409 11.0067L54.4067 11.5285L54.5825 10.1925L50.6167 9.67073ZM51.9414 9.32663L48.9004 10.0825L49.8652 13.9644L52.9063 13.2085L51.9414 9.32663ZM47.3828 12.0234V33.9434H51.3828V12.0234H47.3828ZM49.3828 35.9434H58.2246V31.9434H49.3828V35.9434ZM60.1051 34.6245L61.7222 30.1596L57.9613 28.7974L56.3442 33.2623L60.1051 34.6245ZM60.247 31.437C60.2468 31.4371 60.2617 31.434 60.2946 31.4311C60.3273 31.4282 60.3736 31.4258 60.4351 31.4258C60.5599 31.4258 60.7285 31.4357 60.9472 31.4631L61.4434 27.494C60.7828 27.4114 60.084 27.386 59.4366 27.52L60.247 31.437ZM59.1959 29.527L59.3541 36.0485L63.3529 35.9515L63.1947 29.43L59.1959 29.527ZM61.3535 34H43.459V38H61.3535V34ZM45.2073 35.0287L45.1194 34.8705L41.6228 36.8131L41.7107 36.9713L45.2073 35.0287ZM45.3572 36.077L45.5154 34.7411L41.5432 34.2707L41.385 35.6066L45.3572 36.077ZM65.2734 23.5898L63.4278 22.8193L63.4246 22.827L63.4215 22.8347L65.2734 23.5898ZM67.3125 20.4434L65.872 19.0559L65.8701 19.0579L67.3125 20.4434ZM80.1621 20.2148L78.6755 21.5528L78.6776 21.555L80.1621 20.2148ZM79.7051 33.8203L81.1506 35.2026L81.1542 35.1987L79.7051 33.8203ZM66.8906 33.9434L65.408 35.2857L65.4103 35.2882L66.8906 33.9434ZM68.0508 23.3438L69.9657 23.9209L69.9679 23.9137L68.0508 23.3438ZM69.6855 32.3262L68.1311 33.5846L68.133 33.5869L69.6855 32.3262ZM78.9141 31.0078L77.0065 30.4068L77.0025 30.4196L78.9141 31.0078ZM78.7383 24.4863L76.8587 25.1698L76.8621 25.1792L76.8656 25.1886L78.7383 24.4863ZM77.2793 21.8496L75.7127 23.0929L75.7236 23.1066L75.7347 23.1202L77.2793 21.8496ZM75.3105 20.1445L74.3152 21.8793L74.332 21.8889L74.3489 21.8982L75.3105 20.1445ZM70.8984 19.9512L71.6357 21.8103L71.6439 21.8071L71.652 21.8038L70.8984 19.9512ZM66.5352 27.3867C66.5352 26.3172 66.7325 25.3084 67.1254 24.345L63.4215 22.8347C62.83 24.2853 62.5352 25.8078 62.5352 27.3867H66.5352ZM67.1191 24.3603C67.5334 23.3678 68.0806 22.5308 68.7549 21.8288L65.8701 19.0579C64.8334 20.1372 64.0213 21.3978 63.4278 22.8193L67.1191 24.3603ZM68.753 21.8308C70.236 20.2911 71.9097 19.5781 73.8691 19.5781V15.5781C70.7661 15.5781 68.0687 16.7753 65.872 19.0559L68.753 21.8308ZM73.8691 19.5781C75.9819 19.5781 77.5151 20.2634 78.6755 21.5528L81.6487 18.8769C79.6451 16.6507 76.9829 15.5781 73.8691 15.5781V19.5781ZM78.6776 21.555C79.8123 22.812 80.4473 24.4851 80.4473 26.7539H84.4473C84.4473 23.6789 83.5588 20.9927 81.6466 18.8746L78.6776 21.555ZM80.4473 26.7539C80.4473 29.059 79.7108 30.9124 78.256 32.4419L81.1542 35.1987C83.3556 32.8845 84.4473 30.0269 84.4473 26.7539H80.4473ZM78.2596 32.4381C76.8413 33.9213 75.1767 34.6328 73.1484 34.6328V38.6328C76.2764 38.6328 78.983 37.4693 81.1506 35.2026L78.2596 32.4381ZM73.1484 34.6328C71.1375 34.6328 69.6 33.9513 68.3709 32.5985L65.4103 35.2882C67.4391 37.5213 70.0735 38.6328 73.1484 38.6328V34.6328ZM68.3732 32.601C67.1787 31.2817 66.5352 29.595 66.5352 27.3867H62.5352C62.5352 30.4519 63.4619 33.1363 65.408 35.2857L68.3732 32.601ZM67.6375 19.9002C66.9396 20.7172 66.4539 21.6969 66.1337 22.7738L69.9679 23.9137C70.1633 23.2562 70.4159 22.8062 70.679 22.4982L67.6375 19.9002ZM66.1359 22.7666C65.8063 23.8603 65.6641 25.0907 65.6641 26.4199H69.6641C69.6641 25.3585 69.7797 24.5382 69.9657 23.9209L66.1359 22.7666ZM65.6641 26.4199C65.6641 27.8177 65.8861 29.1521 66.3521 30.4045L70.101 29.0096C69.817 28.2463 69.6641 27.3893 69.6641 26.4199H65.6641ZM66.3521 30.4045C66.7928 31.5889 67.3804 32.6573 68.1311 33.5846L71.24 31.0678C70.7954 30.5185 70.4103 29.8408 70.101 29.0096L66.3521 30.4045ZM68.133 33.5869C69.6599 35.4673 71.5952 36.6641 73.9219 36.6641V32.6641C73.1314 32.6641 72.2424 32.3022 71.2381 31.0654L68.133 33.5869ZM73.9219 36.6641C75.5284 36.6641 77.0328 36.2808 78.2853 35.3635C79.5397 34.4448 80.3545 33.1272 80.8256 31.596L77.0025 30.4196C76.7236 31.326 76.3314 31.8365 75.9218 32.1365C75.5102 32.4379 74.8935 32.6641 73.9219 32.6641V36.6641ZM80.8216 31.6088C81.1704 30.5017 81.3184 29.2431 81.3184 27.8789H77.3184C77.3184 28.9756 77.1968 29.803 77.0065 30.4068L80.8216 31.6088ZM81.3184 27.8789C81.3184 26.4366 81.0912 25.0647 80.6109 23.7841L76.8656 25.1886C77.1588 25.9705 77.3184 26.8603 77.3184 27.8789H81.3184ZM80.6179 23.8028C80.178 22.5931 79.5875 21.5073 78.8239 20.5791L75.7347 23.1202C76.1664 23.645 76.5486 24.3171 76.8587 25.1698L80.6179 23.8028ZM78.8459 20.6063C78.117 19.6879 77.2624 18.9339 76.2722 18.3909L74.3489 21.8982C74.8119 22.1521 75.2698 22.5348 75.7127 23.0929L78.8459 20.6063ZM76.3059 18.4098C75.3087 17.8376 74.2238 17.5293 73.0781 17.5293V21.5293C73.4793 21.5293 73.8827 21.6311 74.3152 21.8793L76.3059 18.4098ZM73.0781 17.5293C72.0635 17.5293 71.0805 17.718 70.1448 18.0986L71.652 21.8038C72.0992 21.6219 72.5693 21.5293 73.0781 21.5293V17.5293ZM70.1612 18.092C69.1749 18.4831 68.327 19.093 67.6375 19.9002L70.679 22.4982C70.9504 22.1804 71.2626 21.9583 71.6357 21.8103L70.1612 18.092ZM92.8535 30.0762L93.0744 28.0884L92.4308 28.0169L91.8675 28.3361L92.8535 30.0762ZM91.7109 33.1348L93.0043 31.6092L92.9973 31.6034L91.7109 33.1348ZM94.6289 34.0488L94.4135 36.0372L94.4217 36.0381L94.4299 36.0389L94.6289 34.0488ZM98.3906 34.5586L98.0347 36.5267L98.0449 36.5285L98.055 36.5302L98.3906 34.5586ZM101.115 35.3672L102.01 33.5783L101.998 33.5725L101.115 35.3672ZM100.781 43.6289L99.6288 41.9943L99.6216 41.9994L99.6144 42.0045L100.781 43.6289ZM88.1074 43.5938L89.3337 42.0138L89.3315 42.0121L88.1074 43.5938ZM87 38.0215L88.2 39.6215L88.27 39.569L88.3351 39.5106L87 38.0215ZM88.0195 37.1074L86.7145 35.5919L86.6993 35.6049L86.6844 35.6183L88.0195 37.1074ZM89.5664 35.877L90.7664 37.477L93.218 35.6382L90.5479 34.1343L89.5664 35.877ZM88.9336 31.3242L90.1867 32.883L90.2004 32.8719L90.214 32.8607L88.9336 31.3242ZM89.9883 30.6211L90.9596 32.3694L90.9967 32.3488L91.0329 32.3266L89.9883 30.6211ZM91.3945 29.7598L92.4392 31.4653L96.045 29.2567L92.0503 27.8703L91.3945 29.7598ZM87.4746 26.2617L89.3451 25.5536L89.3423 25.5464L87.4746 26.2617ZM89.6367 19.2656L88.3873 17.7039L88.3783 17.7111L89.6367 19.2656ZM95.0156 17.4375L95.0964 15.4391L95.056 15.4375H95.0156V17.4375ZM99.7969 17.6309L99.7161 19.6292L99.7565 19.6309H99.7969V17.6309ZM103.506 17.1211L105.121 15.9422L104.203 14.684L102.759 15.2659L103.506 17.1211ZM103.787 19.7227L104.897 21.3868L105.419 21.0384L105.649 20.454L103.787 19.7227ZM101.273 19.6172L100.424 21.4277L100.46 21.4448L100.497 21.4605L101.273 19.6172ZM99.9199 19.1426L100.203 17.1627L98.7347 16.953L98.1076 18.2968L99.9199 19.1426ZM99.7969 19.4062L97.9845 18.5605L97.3068 20.0127L98.5764 20.9907L99.7969 19.4062ZM101.484 22.4648L99.5188 22.8344L99.5231 22.8572L99.5279 22.8799L101.484 22.4648ZM99.3398 28.2656L98.0468 26.7398L98.0383 26.7471L99.3398 28.2656ZM96.2285 28.0195L96.8748 29.9122L96.8953 29.9052L96.9157 29.8978L96.2285 28.0195ZM97.4941 27.2637L96.1574 25.776L96.1536 25.7795L97.4941 27.2637ZM97.3008 20.7246L98.7324 19.3279L98.7242 19.3197L97.3008 20.7246ZM91.1133 20.5664L89.6781 19.1735L89.6775 19.1741L91.1133 20.5664ZM91.3594 26.9648L89.9636 28.3973L89.9641 28.3978L91.3594 26.9648ZM89.3203 40.9219L87.5146 41.7817L87.5229 41.7991L87.5315 41.8163L89.3203 40.9219ZM90.4102 42.2578L91.699 40.7284L91.6929 40.7233L91.6868 40.7183L90.4102 42.2578ZM98.9531 42.293L97.5965 40.8233L97.5865 40.8327L98.9531 42.293ZM98.8477 37.793L98.1049 39.6499L98.1208 39.6563L98.1368 39.6624L98.8477 37.793ZM95.3848 37.0898L95.1577 39.0769L95.1657 39.0778L95.1738 39.0787L95.3848 37.0898ZM90.6738 36.3691L91.2364 34.4499L90.3216 34.1817L89.5372 34.7235L90.6738 36.3691ZM91.8675 28.3361C91.2449 28.6889 90.6491 29.1059 90.1871 29.6141C89.7208 30.127 89.2715 30.8711 89.2715 31.8164H93.2715C93.2715 32.1992 93.0858 32.372 93.1469 32.3048C93.1733 32.2758 93.2361 32.2144 93.3557 32.1254C93.4739 32.0374 93.6324 31.9336 93.8395 31.8162L91.8675 28.3361ZM89.2715 31.8164C89.2715 32.6632 89.4538 33.8507 90.4246 34.6662L92.9973 31.6034C93.1879 31.7635 93.2599 31.9316 93.2787 31.9881C93.2932 32.0317 93.2715 31.9909 93.2715 31.8164H89.2715ZM90.4176 34.6603C91.4422 35.529 92.9391 35.8775 94.4135 36.0372L94.8443 32.0605C94.2251 31.9934 93.7669 31.8991 93.4426 31.7975C93.1076 31.6926 93.0008 31.6062 93.0043 31.6093L90.4176 34.6603ZM94.4299 36.0389C95.7965 36.1756 96.9965 36.3389 98.0347 36.5267L98.7466 32.5905C97.5816 32.3798 96.2738 32.2033 94.8279 32.0588L94.4299 36.0389ZM98.055 36.5302C99.0367 36.6973 99.7445 36.9219 100.233 37.1619L101.998 33.5725C101.056 33.1094 99.9476 32.7949 98.7262 32.587L98.055 36.5302ZM100.221 37.156C100.598 37.3448 100.813 37.5666 100.951 37.8141C101.098 38.0784 101.225 38.4926 101.225 39.1465H105.225C105.225 37.9839 104.999 36.8601 104.444 35.8646C103.879 34.8524 103.038 34.0927 102.01 33.5783L100.221 37.156ZM101.225 39.1465C101.225 40.2751 100.778 41.184 99.6288 41.9943L101.934 45.2635C104.042 43.777 105.225 41.6976 105.225 39.1465H101.225ZM99.6144 42.0045C98.3751 42.8948 96.6719 43.4219 94.3477 43.4219V47.4219C97.2734 47.4219 99.8593 46.7536 101.948 45.2533L99.6144 42.0045ZM94.3477 43.4219C92.0667 43.4219 90.4596 42.8876 89.3337 42.0138L86.8812 45.1737C88.8959 46.7374 91.449 47.4219 94.3477 47.4219V43.4219ZM89.3315 42.0121C88.3143 41.2249 88.0859 40.5776 88.0859 40.0605H84.0859C84.0859 42.1685 85.2052 43.8767 86.8834 45.1754L89.3315 42.0121ZM88.0859 40.0605C88.0859 39.8329 88.1242 39.7262 88.1395 39.6921C88.1499 39.6689 88.1602 39.6514 88.2 39.6215L85.8 36.4215C84.5906 37.3286 84.0859 38.6599 84.0859 40.0605H88.0859ZM88.3351 39.5106L89.3546 38.5966L86.6844 35.6183L85.6649 36.5323L88.3351 39.5106ZM89.3246 38.623C89.7026 38.2974 90.1809 37.9161 90.7664 37.477L88.3664 34.277C87.7331 34.7519 87.1802 35.1909 86.7145 35.5919L89.3246 38.623ZM90.5479 34.1343C90.2039 33.9406 90.0371 33.7271 90.0371 33.1523H86.0371C86.0371 35.062 86.8899 36.6649 88.5849 37.6196L90.5479 34.1343ZM90.0371 33.1523C90.0371 33.0612 90.0534 33.0293 90.0569 33.0222C90.0615 33.0128 90.0865 32.9635 90.1867 32.883L87.6805 29.7655C86.6318 30.6086 86.0371 31.7815 86.0371 33.1523H90.0371ZM90.214 32.8607C90.3743 32.7271 90.6148 32.5609 90.9596 32.3694L89.017 28.8728C88.518 29.15 88.0554 29.4526 87.6532 29.7878L90.214 32.8607ZM91.0329 32.3266L92.4392 31.4653L90.3499 28.0543L88.9437 28.9156L91.0329 32.3266ZM92.0503 27.8703C90.4933 27.33 89.7137 26.5273 89.3451 25.5536L85.6042 26.9698C86.4777 29.2774 88.3114 30.8067 90.7388 31.6492L92.0503 27.8703ZM89.3423 25.5464C89.2516 25.3094 89.1582 24.8579 89.1582 24.0996H85.1582C85.1582 25.1226 85.2758 26.1124 85.6069 26.977L89.3423 25.5464ZM89.1582 24.0996C89.1582 23.5657 89.292 23.0046 89.6131 22.3954L86.0744 20.5304C85.4814 21.6556 85.1582 22.8523 85.1582 24.0996H89.1582ZM89.6131 22.3954C89.9478 21.7602 90.3743 21.2417 90.8951 20.8201L88.3783 17.7111C87.4226 18.4849 86.6537 19.4313 86.0744 20.5304L89.6131 22.3954ZM90.8861 20.8274C92.0337 19.9093 93.3793 19.4375 95.0156 19.4375V15.4375C92.5269 15.4375 90.2866 16.1845 88.3873 17.7039L90.8861 20.8274ZM94.9348 19.4359L99.7161 19.6292L99.8777 15.6325L95.0964 15.4391L94.9348 19.4359ZM99.7969 19.6309C101.512 19.6309 103.053 19.4595 104.253 18.9763L102.759 15.2659C102.271 15.4623 101.34 15.6309 99.7969 15.6309V19.6309ZM101.89 18.3C101.964 18.4014 101.988 18.4579 101.992 18.4692C101.995 18.4766 101.98 18.4396 101.98 18.3691H105.98C105.98 17.4218 105.602 16.6009 105.121 15.9422L101.89 18.3ZM101.98 18.3691C101.98 18.5847 101.968 18.7438 101.952 18.8553C101.936 18.9695 101.92 19.0065 101.926 18.9914L105.649 20.454C105.909 19.7922 105.98 19.0561 105.98 18.3691H101.98ZM102.678 18.0586C102.753 18.0083 102.819 17.984 102.859 17.9736C102.895 17.9639 102.899 17.9688 102.855 17.9688V21.9688C103.52 21.9688 104.244 21.8218 104.897 21.3868L102.678 18.0586ZM102.855 17.9688C102.737 17.9688 102.651 17.9629 102.593 17.9561C102.534 17.9491 102.518 17.9428 102.534 17.9476L101.384 21.7789C101.872 21.9252 102.382 21.9688 102.855 21.9688V17.9688ZM102.534 17.9476C102.367 17.8976 102.206 17.8396 102.05 17.7739L100.497 21.4605C100.787 21.5823 101.082 21.6884 101.384 21.7789L102.534 17.9476ZM102.123 17.8067C101.502 17.515 100.833 17.2527 100.203 17.1627L99.6371 21.1225C99.6293 21.1214 99.6911 21.1306 99.8426 21.1837C99.9875 21.2345 100.179 21.313 100.424 21.4277L102.123 17.8067ZM98.1076 18.2968L97.9845 18.5605L101.609 20.252L101.732 19.9883L98.1076 18.2968ZM98.5764 20.9907C98.9568 21.2837 99.3261 21.8093 99.5188 22.8344L103.45 22.0953C103.127 20.3782 102.371 18.8647 101.017 17.8218L98.5764 20.9907ZM99.5279 22.8799C99.5683 23.0704 99.6074 23.4341 99.6074 24.0293H103.607C103.607 23.312 103.564 22.6328 103.441 22.0498L99.5279 22.8799ZM99.6074 24.0293C99.6074 24.2558 99.5321 24.658 99.2139 25.2761L102.77 27.1067C103.273 26.1311 103.607 25.0919 103.607 24.0293H99.6074ZM99.2139 25.2761C98.9253 25.837 98.5403 26.3216 98.0468 26.7398L100.633 29.7914C101.522 29.0377 102.239 28.1396 102.77 27.1067L99.2139 25.2761ZM98.0383 26.7471C96.9337 27.6938 95.6642 28.1641 94.1367 28.1641V32.1641C96.5936 32.1641 98.7928 31.3687 100.641 29.7841L98.0383 26.7471ZM94.1367 28.1641C93.9131 28.1641 93.5671 28.1432 93.0744 28.0884L92.6327 32.0639C93.1946 32.1264 93.704 32.1641 94.1367 32.1641V28.1641ZM94.6289 30.2656C95.4015 30.2656 96.157 30.1573 96.8748 29.9122L95.5822 26.1268C95.3391 26.2098 95.0282 26.2656 94.6289 26.2656V30.2656ZM96.9157 29.8978C97.6262 29.6378 98.2724 29.2558 98.8347 28.7479L96.1536 25.7795C95.9893 25.9278 95.7918 26.0497 95.5414 26.1413L96.9157 29.8978ZM98.8309 28.7513C100.106 27.6052 100.707 26.0805 100.707 24.3809H96.707C96.707 25.0718 96.499 25.469 96.1574 25.776L98.8309 28.7513ZM100.707 24.3809C100.707 22.4395 100.072 20.7014 98.7323 19.328L95.8692 22.1213C96.4043 22.6697 96.707 23.3691 96.707 24.3809H100.707ZM98.7242 19.3197C97.4625 18.0414 95.8795 17.3711 94.084 17.3711V21.3711C94.7963 21.3711 95.3578 21.6032 95.8774 22.1295L98.7242 19.3197ZM94.084 17.3711C92.3882 17.3711 90.863 17.9527 89.6781 19.1735L92.5484 21.9594C92.9105 21.5864 93.3657 21.3711 94.084 21.3711V17.3711ZM89.6775 19.1741C88.5284 20.3591 87.9883 21.8546 87.9883 23.502H91.9883C91.9883 22.7821 92.1982 22.3206 92.5491 21.9587L89.6775 19.1741ZM87.9883 23.502C87.9883 25.3934 88.6184 27.0866 89.9636 28.3973L92.7551 25.5324C92.2722 25.0619 91.9883 24.4464 91.9883 23.502H87.9883ZM89.9641 28.3978C91.2433 29.6433 92.8401 30.2656 94.6289 30.2656V26.2656C93.8396 26.2656 93.2567 26.0208 92.7546 25.5319L89.9641 28.3978ZM86.9688 39.5156C86.9688 40.3175 87.1804 41.08 87.5146 41.7817L91.126 40.062C90.9915 39.7794 90.9688 39.6043 90.9688 39.5156H86.9688ZM87.5315 41.8163C87.9173 42.588 88.468 43.2455 89.1335 43.7973L91.6868 40.7183C91.3914 40.4733 91.2155 40.2401 91.1092 40.0274L87.5315 41.8163ZM89.1214 43.7872C90.6317 45.06 92.5785 45.5762 94.7168 45.5762V41.5762C93.1988 41.5762 92.2745 41.2134 91.699 40.7284L89.1214 43.7872ZM94.7168 45.5762C96.8751 45.5762 98.8814 45.0993 100.32 43.7532L97.5865 40.8327C97.1967 41.1975 96.3788 41.5762 94.7168 41.5762V45.5762ZM100.31 43.7626C101.554 42.6139 102.096 41.0801 102.096 39.4102H98.0957C98.0957 40.1777 97.8756 40.5658 97.5966 40.8234L100.31 43.7626ZM102.096 39.4102C102.096 38.6424 101.877 37.8736 101.367 37.2127C100.874 36.574 100.216 36.1735 99.5586 35.9236L98.1368 39.6624C98.3115 39.7288 98.2772 39.7561 98.2004 39.6565C98.162 39.6067 98.1313 39.548 98.1128 39.4899C98.095 39.4342 98.0957 39.4029 98.0957 39.4102H102.096ZM99.5904 35.936C98.568 35.527 97.1929 35.2704 95.5957 35.101L95.1738 39.0787C96.6704 39.2374 97.6039 39.4495 98.1049 39.6499L99.5904 35.936ZM95.6119 35.1028C93.1027 34.816 91.718 34.5911 91.2364 34.4499L90.1113 38.2884C90.989 38.5457 92.745 38.8012 95.1577 39.0769L95.6119 35.1028ZM89.5372 34.7235C87.8936 35.8588 86.9688 37.5061 86.9688 39.5156H90.9688C90.9688 38.9001 91.1807 38.4498 91.8105 38.0147L89.5372 34.7235ZM107.285 23.5898L105.44 22.8193L105.436 22.827L105.433 22.8347L107.285 23.5898ZM109.324 20.4434L107.884 19.0559L107.882 19.0579L109.324 20.4434ZM122.174 20.2148L120.687 21.5528L120.689 21.555L122.174 20.2148ZM121.717 33.8203L123.162 35.2026L123.166 35.1987L121.717 33.8203ZM108.902 33.9434L107.42 35.2857L107.422 35.2882L108.902 33.9434ZM110.062 23.3438L111.977 23.9209L111.98 23.9137L110.062 23.3438ZM111.697 32.3262L110.143 33.5846L110.145 33.5869L111.697 32.3262ZM120.926 31.0078L119.018 30.4068L119.014 30.4196L120.926 31.0078ZM120.75 24.4863L118.87 25.1698L118.874 25.1792L118.877 25.1886L120.75 24.4863ZM119.291 21.8496L117.724 23.0929L117.735 23.1066L117.746 23.1202L119.291 21.8496ZM117.322 20.1445L116.327 21.8793L116.344 21.8889L116.361 21.8982L117.322 20.1445ZM112.91 19.9512L113.647 21.8103L113.656 21.8071L113.664 21.8038L112.91 19.9512ZM108.547 27.3867C108.547 26.3172 108.744 25.3084 109.137 24.345L105.433 22.8347C104.842 24.2853 104.547 25.8078 104.547 27.3867H108.547ZM109.131 24.3603C109.545 23.3678 110.092 22.5308 110.767 21.8288L107.882 19.0579C106.845 20.1372 106.033 21.3978 105.44 22.8193L109.131 24.3603ZM110.765 21.8308C112.248 20.2911 113.921 19.5781 115.881 19.5781V15.5781C112.778 15.5781 110.08 16.7753 107.884 19.0559L110.765 21.8308ZM115.881 19.5781C117.994 19.5781 119.527 20.2634 120.687 21.5528L123.66 18.8769C121.657 16.6507 118.995 15.5781 115.881 15.5781V19.5781ZM120.689 21.555C121.824 22.812 122.459 24.4851 122.459 26.7539H126.459C126.459 23.6789 125.571 20.9927 123.658 18.8746L120.689 21.555ZM122.459 26.7539C122.459 29.059 121.723 30.9124 120.268 32.4419L123.166 35.1987C125.367 32.8845 126.459 30.0269 126.459 26.7539H122.459ZM120.271 32.4381C118.853 33.9213 117.188 34.6328 115.16 34.6328V38.6328C118.288 38.6328 120.995 37.4693 123.162 35.2026L120.271 32.4381ZM115.16 34.6328C113.149 34.6328 111.612 33.9513 110.383 32.5985L107.422 35.2882C109.451 37.5213 112.085 38.6328 115.16 38.6328V34.6328ZM110.385 32.601C109.19 31.2817 108.547 29.595 108.547 27.3867H104.547C104.547 30.4519 105.474 33.1363 107.42 35.2857L110.385 32.601ZM109.649 19.9002C108.951 20.7172 108.466 21.6969 108.145 22.7738L111.98 23.9137C112.175 23.2562 112.428 22.8062 112.691 22.4982L109.649 19.9002ZM108.148 22.7666C107.818 23.8603 107.676 25.0907 107.676 26.4199H111.676C111.676 25.3585 111.791 24.5382 111.977 23.9209L108.148 22.7666ZM107.676 26.4199C107.676 27.8177 107.898 29.1521 108.364 30.4045L112.113 29.0096C111.829 28.2463 111.676 27.3893 111.676 26.4199H107.676ZM108.364 30.4045C108.805 31.5889 109.392 32.6573 110.143 33.5846L113.252 31.0678C112.807 30.5185 112.422 29.8408 112.113 29.0096L108.364 30.4045ZM110.145 33.5869C111.672 35.4673 113.607 36.6641 115.934 36.6641V32.6641C115.143 32.6641 114.254 32.3022 113.25 31.0654L110.145 33.5869ZM115.934 36.6641C117.54 36.6641 119.044 36.2808 120.297 35.3635C121.551 34.4448 122.366 33.1272 122.837 31.596L119.014 30.4196C118.735 31.326 118.343 31.8365 117.933 32.1365C117.522 32.4379 116.905 32.6641 115.934 32.6641V36.6641ZM122.833 31.6088C123.182 30.5017 123.33 29.2431 123.33 27.8789H119.33C119.33 28.9756 119.208 29.803 119.018 30.4068L122.833 31.6088ZM123.33 27.8789C123.33 26.4366 123.103 25.0647 122.623 23.7841L118.877 25.1886C119.171 25.9705 119.33 26.8603 119.33 27.8789H123.33ZM122.63 23.8028C122.19 22.5931 121.599 21.5073 120.836 20.5791L117.746 23.1202C118.178 23.645 118.56 24.3171 118.87 25.1698L122.63 23.8028ZM120.858 20.6063C120.129 19.6879 119.274 18.9339 118.284 18.3909L116.361 21.8982C116.824 22.1521 117.281 22.5348 117.724 23.0929L120.858 20.6063ZM118.318 18.4098C117.32 17.8376 116.236 17.5293 115.09 17.5293V21.5293C115.491 21.5293 115.894 21.6311 116.327 21.8793L118.318 18.4098ZM115.09 17.5293C114.075 17.5293 113.092 17.718 112.157 18.0986L113.664 21.8038C114.111 21.6219 114.581 21.5293 115.09 21.5293V17.5293ZM112.173 18.092C111.187 18.4831 110.339 19.093 109.649 19.9002L112.691 22.4982C112.962 22.1804 113.274 21.9583 113.647 21.8103L112.173 18.092Z" fill="white"/>
<path d="M6.19043 19.0439L8.78809 14.0469H10.2783L6.84668 20.2881V24H5.53418V20.2881L2.10254 14.0469H3.60645L6.19043 19.0439ZM19.0146 19.3447C19.0146 20.32 18.8506 21.1722 18.5225 21.9014C18.1943 22.626 17.7295 23.1797 17.1279 23.5625C16.5264 23.9453 15.8245 24.1367 15.0225 24.1367C14.2386 24.1367 13.5436 23.9453 12.9375 23.5625C12.3314 23.1751 11.8597 22.626 11.5225 21.915C11.1898 21.1995 11.0189 20.3724 11.0098 19.4336V18.7158C11.0098 17.7588 11.1761 16.9134 11.5088 16.1797C11.8415 15.446 12.3109 14.8854 12.917 14.498C13.5277 14.1061 14.2249 13.9102 15.0088 13.9102C15.8063 13.9102 16.5081 14.1038 17.1143 14.4912C17.7249 14.874 18.1943 15.4323 18.5225 16.166C18.8506 16.8952 19.0146 17.7451 19.0146 18.7158V19.3447ZM17.709 18.7021C17.709 17.5218 17.472 16.6172 16.998 15.9883C16.5241 15.3548 15.861 15.0381 15.0088 15.0381C14.1794 15.0381 13.5254 15.3548 13.0469 15.9883C12.5729 16.6172 12.3291 17.4922 12.3154 18.6133V19.3447C12.3154 20.4886 12.5547 21.3887 13.0332 22.0449C13.5163 22.6966 14.1794 23.0225 15.0225 23.0225C15.8701 23.0225 16.5264 22.7148 16.9912 22.0996C17.4561 21.4798 17.6953 20.5934 17.709 19.4404V18.7021ZM27.9902 14.0469V20.8145C27.9857 21.7533 27.6895 22.5212 27.1016 23.1182C26.5182 23.7152 25.7253 24.0501 24.7227 24.123L24.374 24.1367C23.2848 24.1367 22.4167 23.8428 21.7695 23.2549C21.1224 22.667 20.7943 21.8581 20.7852 20.8281V14.0469H22.084V20.7871C22.084 21.5072 22.2822 22.0677 22.6787 22.4688C23.0752 22.8652 23.6403 23.0635 24.374 23.0635C25.1169 23.0635 25.6842 22.8652 26.0762 22.4688C26.4727 22.0723 26.6709 21.514 26.6709 20.7939V14.0469H27.9902ZM33.7119 19.9736H31.374V24H30.0547V14.0469H33.3496C34.4707 14.0469 35.332 14.3021 35.9336 14.8125C36.5397 15.3229 36.8428 16.0658 36.8428 17.041C36.8428 17.6608 36.6742 18.2008 36.3369 18.6611C36.0042 19.1214 35.5394 19.4655 34.9424 19.6934L37.2803 23.918V24H35.8721L33.7119 19.9736ZM31.374 18.9004H33.3906C34.0423 18.9004 34.5596 18.7318 34.9424 18.3945C35.3298 18.0573 35.5234 17.6061 35.5234 17.041C35.5234 16.4258 35.3389 15.9541 34.9697 15.626C34.6051 15.2979 34.0765 15.1315 33.3838 15.127H31.374V18.9004Z" fill="#950707"/>
<path d="M6.19043 19.0439L5.30216 19.5033L6.18809 21.2165L7.07771 19.5052L6.19043 19.0439ZM8.78809 14.0469V13.0469H8.18088L7.90081 13.5856L8.78809 14.0469ZM10.2783 14.0469L11.1546 14.5287L11.9693 13.0469H10.2783V14.0469ZM6.84668 20.2881L5.9704 19.8063L5.84668 20.0313V20.2881H6.84668ZM6.84668 24V25H7.84668V24H6.84668ZM5.53418 24H4.53418V25H5.53418V24ZM5.53418 20.2881H6.53418V20.0313L6.41046 19.8063L5.53418 20.2881ZM2.10254 14.0469V13.0469H0.411511L1.22626 14.5287L2.10254 14.0469ZM3.60645 14.0469L4.49471 13.5876L4.21513 13.0469H3.60645V14.0469ZM7.07771 19.5052L9.67536 14.5081L7.90081 13.5856L5.30315 18.5827L7.07771 19.5052ZM8.78809 15.0469H10.2783V13.0469H8.78809V15.0469ZM9.40204 13.5651L5.9704 19.8063L7.72296 20.7699L11.1546 14.5287L9.40204 13.5651ZM5.84668 20.2881V24H7.84668V20.2881H5.84668ZM6.84668 23H5.53418V25H6.84668V23ZM6.53418 24V20.2881H4.53418V24H6.53418ZM6.41046 19.8063L2.97882 13.5651L1.22626 14.5287L4.6579 20.7699L6.41046 19.8063ZM2.10254 15.0469H3.60645V13.0469H2.10254V15.0469ZM2.71818 14.5062L5.30216 19.5033L7.0787 18.5846L4.49471 13.5876L2.71818 14.5062ZM18.5225 21.9014L19.4334 22.3139L19.4344 22.3117L18.5225 21.9014ZM12.9375 23.5625L12.399 24.4051L12.4035 24.408L12.9375 23.5625ZM11.5225 21.915L10.6157 22.3367L10.619 22.3436L11.5225 21.915ZM11.0098 19.4336L10.0097 19.4336L10.0098 19.4433L11.0098 19.4336ZM11.5088 16.1797L10.598 15.7667L11.5088 16.1797ZM12.917 14.498L13.4555 15.3407L13.4571 15.3396L12.917 14.498ZM17.1143 14.4912L16.5757 15.3339L16.5831 15.3385L17.1143 14.4912ZM18.5225 16.166L17.6096 16.5743L17.6105 16.5764L18.5225 16.166ZM16.998 15.9883L16.1974 16.5874L16.1994 16.5901L16.998 15.9883ZM13.0469 15.9883L12.2489 15.3855L12.2483 15.3864L13.0469 15.9883ZM12.3154 18.6133L11.3154 18.6011V18.6133H12.3154ZM13.0332 22.0449L12.2252 22.6341L12.2298 22.6404L13.0332 22.0449ZM16.9912 22.0996L17.7891 22.7024L17.7912 22.6996L16.9912 22.0996ZM17.709 19.4404L18.709 19.4523V19.4404H17.709ZM18.0146 19.3447C18.0146 20.2089 17.8693 20.916 17.6105 21.491L19.4344 22.3117C19.8319 21.4284 20.0146 20.4311 20.0146 19.3447H18.0146ZM17.6115 21.4889C17.3539 22.0576 17.0101 22.4522 16.5911 22.7188L17.6648 24.4062C18.4489 23.9072 19.0347 23.1943 19.4334 22.3139L17.6115 21.4889ZM16.5911 22.7188C16.1694 22.9872 15.6588 23.1367 15.0225 23.1367V25.1367C15.9903 25.1367 16.8833 24.9035 17.6648 24.4062L16.5911 22.7188ZM15.0225 23.1367C14.4093 23.1367 13.903 22.9895 13.4715 22.717L12.4035 24.408C13.1843 24.9011 14.0679 25.1367 15.0225 25.1367V23.1367ZM13.476 22.7199C13.0427 22.443 12.6906 22.0444 12.426 21.4865L10.619 22.3436C11.0288 23.2076 11.6201 23.9073 12.399 24.4051L13.476 22.7199ZM12.4292 21.4934C12.1669 20.9292 12.0177 20.247 12.0097 19.4239L10.0098 19.4433C10.0201 20.4978 10.2127 21.4699 10.6157 22.3367L12.4292 21.4934ZM12.0098 19.4336V18.7158H10.0098V19.4336H12.0098ZM12.0098 18.7158C12.0098 17.8748 12.1557 17.1746 12.4195 16.5926L10.598 15.7667C10.1965 16.6523 10.0098 17.6428 10.0098 18.7158H12.0098ZM12.4195 16.5926C12.6822 16.0133 13.0315 15.6116 13.4555 15.3407L12.3785 13.6554C11.5902 14.1592 11.0007 14.8786 10.598 15.7667L12.4195 16.5926ZM13.4571 15.3396C13.8937 15.0595 14.4004 14.9102 15.0088 14.9102V12.9102C14.0495 12.9102 13.1617 13.1528 12.3769 13.6565L13.4571 15.3396ZM15.0088 14.9102C15.6369 14.9102 16.1476 15.0602 16.5757 15.3338L17.6528 13.6486C16.8687 13.1475 15.9757 12.9102 15.0088 12.9102V14.9102ZM16.5831 15.3385C17.0068 15.6041 17.3527 15.9998 17.6096 16.5743L19.4353 15.7578C19.036 14.8647 18.443 14.1439 17.6454 13.6439L16.5831 15.3385ZM17.6105 16.5764C17.8696 17.152 18.0146 17.8569 18.0146 18.7158H20.0146C20.0146 17.6333 19.8316 16.6384 19.4344 15.7557L17.6105 16.5764ZM18.0146 18.7158V19.3447H20.0146V18.7158H18.0146ZM18.709 18.7021C18.709 17.4077 18.4521 16.2561 17.7967 15.3864L16.1994 16.5901C16.4919 16.9782 16.709 17.6359 16.709 18.7021H18.709ZM17.7987 15.3892C17.1197 14.4816 16.1479 14.0381 15.0088 14.0381V16.0381C15.5741 16.0381 15.9285 16.228 16.1974 16.5874L17.7987 15.3892ZM15.0088 14.0381C13.8822 14.0381 12.9261 14.4891 12.2489 15.3855L13.8448 16.591C14.1247 16.2206 14.4765 16.0381 15.0088 16.0381V14.0381ZM12.2483 15.3864C11.602 16.244 11.3307 17.3543 11.3155 18.6011L13.3154 18.6255C13.3275 17.6301 13.5438 16.9904 13.8455 16.5901L12.2483 15.3864ZM11.3154 18.6133V19.3447H13.3154V18.6133H11.3154ZM11.3154 19.3447C11.3154 20.6164 11.5802 21.7495 12.2252 22.6341L13.8412 21.4557C13.5292 21.0278 13.3154 20.3608 13.3154 19.3447H11.3154ZM12.2298 22.6404C12.9101 23.5581 13.8773 24.0225 15.0225 24.0225V22.0225C14.4815 22.0225 14.1225 21.8351 13.8366 21.4494L12.2298 22.6404ZM15.0225 24.0225C16.1477 24.0225 17.1146 23.5951 17.7891 22.7024L16.1933 21.4968C15.9381 21.8346 15.5925 22.0225 15.0225 22.0225V24.0225ZM17.7912 22.6996C18.432 21.8452 18.6939 20.719 18.7089 19.4523L16.7091 19.4286C16.6967 20.4678 16.4801 21.1144 16.1912 21.4996L17.7912 22.6996ZM18.709 19.4404V18.7021H16.709V19.4404H18.709ZM27.9902 14.0469H28.9902V13.0469H27.9902V14.0469ZM27.9902 20.8145L28.9902 20.8193V20.8145H27.9902ZM27.1016 23.1182L26.389 22.4165L26.3863 22.4193L27.1016 23.1182ZM24.7227 24.123L24.7618 25.1223L24.7785 25.1216L24.7952 25.1204L24.7227 24.123ZM24.374 24.1367V25.1367H24.3936L24.4132 25.136L24.374 24.1367ZM21.7695 23.2549L21.0971 23.9951L21.7695 23.2549ZM20.7852 20.8281H19.7851L19.7852 20.837L20.7852 20.8281ZM20.7852 14.0469V13.0469H19.7852V14.0469H20.7852ZM22.084 14.0469H23.084V13.0469H22.084V14.0469ZM22.6787 22.4688L21.9676 23.1718L21.9716 23.1759L22.6787 22.4688ZM26.0762 22.4688L25.3691 21.7616L25.365 21.7657L26.0762 22.4688ZM26.6709 14.0469V13.0469H25.6709V14.0469H26.6709ZM26.9902 14.0469V20.8145H28.9902V14.0469H26.9902ZM26.9902 20.8096C26.9868 21.5217 26.7712 22.0284 26.389 22.4165L27.8141 23.8198C28.6077 23.0139 28.9846 21.9848 28.9902 20.8193L26.9902 20.8096ZM26.3863 22.4193C26.007 22.8075 25.4615 23.0667 24.6501 23.1257L24.7952 25.1204C25.9891 25.0336 27.0295 24.6228 27.8168 23.817L26.3863 22.4193ZM24.6835 23.1238L24.3348 23.1375L24.4132 25.136L24.7618 25.1223L24.6835 23.1238ZM24.374 23.1367C23.4698 23.1367 22.8628 22.897 22.4419 22.5147L21.0971 23.9951C21.9706 24.7885 23.0999 25.1367 24.374 25.1367V23.1367ZM22.4419 22.5147C22.0381 22.1478 21.7922 21.6246 21.7851 20.8193L19.7852 20.837C19.7963 22.0916 20.2067 23.1862 21.0971 23.9951L22.4419 22.5147ZM21.7852 20.8281V14.0469H19.7852V20.8281H21.7852ZM20.7852 15.0469H22.084V13.0469H20.7852V15.0469ZM21.084 14.0469V20.7871H23.084V14.0469H21.084ZM21.084 20.7871C21.084 21.6941 21.3385 22.5355 21.9676 23.1718L23.3898 21.7657C23.2259 21.5999 23.084 21.3202 23.084 20.7871H21.084ZM21.9716 23.1759C22.6083 23.8125 23.4602 24.0635 24.374 24.0635V22.0635C23.8204 22.0635 23.5421 21.9179 23.3858 21.7616L21.9716 23.1759ZM24.374 24.0635C25.2921 24.0635 26.1515 23.815 26.7874 23.1718L25.365 21.7657C25.217 21.9155 24.9416 22.0635 24.374 22.0635V24.0635ZM26.7833 23.1759C27.4166 22.5426 27.6709 21.7003 27.6709 20.7939H25.6709C25.6709 21.3277 25.5288 21.6019 25.3691 21.7616L26.7833 23.1759ZM27.6709 20.7939V14.0469H25.6709V20.7939H27.6709ZM26.6709 15.0469H27.9902V13.0469H26.6709V15.0469ZM33.7119 19.9736L34.5931 19.5009L34.3102 18.9736H33.7119V19.9736ZM31.374 19.9736V18.9736H30.374V19.9736H31.374ZM31.374 24V25H32.374V24H31.374ZM30.0547 24H29.0547V25H30.0547V24ZM30.0547 14.0469V13.0469H29.0547V14.0469H30.0547ZM35.9336 14.8125L35.2866 15.575L35.2895 15.5774L35.9336 14.8125ZM36.3369 18.6611L35.5302 18.0701L35.5264 18.0753L36.3369 18.6611ZM34.9424 19.6934L34.5858 18.7591L33.5097 19.1698L34.0674 20.1776L34.9424 19.6934ZM37.2803 23.918H38.2803V23.6597L38.1552 23.4338L37.2803 23.918ZM37.2803 24V25H38.2803V24H37.2803ZM35.8721 24L34.9909 24.4728L35.2737 25H35.8721V24ZM31.374 18.9004H30.374V19.9004H31.374V18.9004ZM34.9424 18.3945L34.2858 17.6403L34.2814 17.6442L34.9424 18.3945ZM34.9697 15.626L34.3007 16.3693L34.3054 16.3734L34.9697 15.626ZM33.3838 15.127L33.3904 14.127H33.3838V15.127ZM31.374 15.127V14.127H30.374V15.127H31.374ZM33.7119 18.9736H31.374V20.9736H33.7119V18.9736ZM30.374 19.9736V24H32.374V19.9736H30.374ZM31.374 23H30.0547V25H31.374V23ZM31.0547 24V14.0469H29.0547V24H31.0547ZM30.0547 15.0469H33.3496V13.0469H30.0547V15.0469ZM33.3496 15.0469C34.3321 15.0469 34.9288 15.2714 35.2866 15.575L36.5806 14.05C35.7353 13.3328 34.6093 13.0469 33.3496 13.0469V15.0469ZM35.2895 15.5774C35.6187 15.8546 35.8428 16.2864 35.8428 17.041H37.8428C37.8428 15.8451 37.4608 14.7912 36.5777 14.0476L35.2895 15.5774ZM35.8428 17.041C35.8428 17.4676 35.7309 17.7963 35.5303 18.0701L37.1436 19.2522C37.6174 18.6054 37.8428 17.854 37.8428 17.041H35.8428ZM35.5264 18.0753C35.3218 18.3585 35.0243 18.5917 34.5858 18.7591L35.299 20.6276C36.0545 20.3393 36.6867 19.8843 37.1474 19.2469L35.5264 18.0753ZM34.0674 20.1776L36.4053 24.4022L38.1552 23.4338L35.8173 19.2092L34.0674 20.1776ZM36.2803 23.918V24H38.2803V23.918H36.2803ZM37.2803 23H35.8721V25H37.2803V23ZM36.7533 23.5272L34.5931 19.5009L32.8307 20.4464L34.9909 24.4728L36.7533 23.5272ZM31.374 19.9004H33.3906V17.9004H31.374V19.9004ZM33.3906 19.9004C34.2162 19.9004 34.9918 19.6837 35.6034 19.1449L34.2814 17.6442C34.1273 17.7799 33.8684 17.9004 33.3906 17.9004V19.9004ZM35.599 19.1488C36.228 18.6012 36.5234 17.8628 36.5234 17.041H34.5234C34.5234 17.3495 34.4315 17.5134 34.2858 17.6403L35.599 19.1488ZM36.5234 17.041C36.5234 16.2158 36.2674 15.4415 35.6341 14.8786L34.3054 16.3734C34.4103 16.4667 34.5234 16.6358 34.5234 17.041H36.5234ZM35.6387 14.8827C35.0293 14.3343 34.2275 14.1325 33.3904 14.127L33.3772 16.1269C33.9255 16.1305 34.181 16.2614 34.3008 16.3693L35.6387 14.8827ZM33.3838 14.127H31.374V16.127H33.3838V14.127ZM30.374 15.127V18.9004H32.374V15.127H30.374Z" fill="white"/>
</svg>
